<svg width="512" height="512" viewBox="0 0 512 512" fill="none" xmlns="http://www.w3.org/2000/svg">
<circle cx="256" cy="256" r="256" fill="#D0E9FF"/>
<path d="M150.187 142.297C150.181 148.427 151.339 154.498 153.596 160.163C155.852 165.829 159.163 170.978 163.339 175.316C167.515 179.655 172.474 183.098 177.933 185.45C183.392 187.801 189.244 189.014 195.156 189.021C207.095 189.008 218.541 184.079 226.975 175.317C235.41 166.555 240.142 154.677 240.132 142.297V95.5742H195.156C170.318 95.5742 150.187 116.496 150.187 142.297ZM270.112 142.297V266.893C270.112 292.702 290.244 313.624 315.081 313.624C327.02 313.611 338.466 308.682 346.901 299.92C355.335 291.158 360.068 279.28 360.058 266.9V142.297C360.064 136.167 358.905 130.096 356.648 124.43C354.391 118.764 351.079 113.615 346.903 109.276C342.726 104.937 337.766 101.494 332.306 99.1429C326.846 96.792 320.993 95.5793 315.081 95.5742C290.244 95.5742 270.112 116.496 270.112 142.297" fill="#1470EF"/>
<path d="M360.058 368.139C360.058 342.33 339.918 321.408 315.081 321.408C290.244 321.408 270.112 342.33 270.112 368.139V414.862H315.081C327.02 414.849 338.466 409.92 346.901 401.158C355.335 392.396 360.068 380.519 360.058 368.139ZM240.132 368.139V243.536C240.142 231.156 235.41 219.278 226.975 210.516C218.541 201.754 207.095 196.825 195.156 196.812C170.318 196.812 150.187 217.734 150.187 243.536V368.131C150.187 393.948 170.318 414.87 195.156 414.87C207.095 414.857 218.541 409.928 226.975 401.166C235.41 392.404 240.142 380.519 240.132 368.139Z" fill="#2E90FB"/>
</svg>
